<?xml version="1.0" standalone="no"?>
<!DOCTYPE svg PUBLIC "-//W3C//DTD SVG 20010904//EN"
 "http://www.w3.org/TR/2001/REC-SVG-20010904/DTD/svg10.dtd">
<svg version="1.0" xmlns="http://www.w3.org/2000/svg"
 width="274.000000pt" height="274.000000pt" viewBox="0 0 274.000000 274.000000"
 preserveAspectRatio="xMidYMid meet">
<metadata>
Created by potrace 1.11, written by Peter Selinger 2001-2013
</metadata>
<g transform="translate(0.000000,274.000000) scale(0.100000,-0.100000)"
fill="#000000" stroke="none">
<path d="M1157 2190 c-55 -14 -93 -36 -145 -83 -43 -40 -92 -124 -92 -159 0
-9 -25 -38 -55 -64 -174 -148 -267 -350 -267 -579 0 -538 532 -897 1060 -716
117 41 184 84 282 181 69 68 94 102 128 170 50 103 74 200 70 288 -3 57 -6 67
-22 70 -29 6 -46 -25 -46 -81 0 -132 -71 -288 -180 -397 -113 -112 -233 -174
-390 -199 -253 -41 -520 56 -676 247 -54 66 -117 191 -139 277 -20 77 -20 243
0 320 30 116 134 295 198 340 25 17 28 14 46 -40 31 -92 110 -169 207 -202 30
-10 69 -14 122 -11 69 4 111 16 407 127 182 68 336 128 343 133 6 6 12 17 12
24 0 9 -138 83 -343 185 -332 166 -345 172 -413 175 -38 2 -86 -1 -107 -6z
m458 -202 l305 -153 -307 -115 c-276 -102 -315 -114 -373 -114 -80 0 -142 26
-198 83 -40 41 -72 112 -72 158 0 22 3 23 73 23 39 0 78 -4 85 -8 7 -5 26 -42
42 -83 16 -43 35 -75 44 -77 22 -5 20 8 -9 80 -14 34 -25 65 -25 70 0 10 59
11 123 2 45 -6 46 -7 67 -65 13 -33 29 -59 36 -59 19 0 17 20 -6 76 l-21 47
62 -7 c34 -3 75 -6 90 -6 16 0 29 -4 29 -9 0 -5 7 -25 15 -46 13 -29 19 -34
30 -25 11 9 11 16 -1 45 l-14 34 79 -6 c56 -4 80 -2 86 6 11 18 6 20 -82 27
l-82 7 14 28 c19 36 19 49 -1 49 -9 0 -22 -17 -32 -41 -14 -37 -18 -40 -45
-35 -16 3 -56 6 -88 6 l-59 0 26 51 c24 49 26 88 3 73 -6 -3 -22 -31 -35 -60
l-24 -54 -85 0 c-47 0 -85 4 -85 9 0 5 14 38 31 75 28 60 31 86 10 86 -5 0
-25 -36 -45 -81 l-37 -81 -79 4 c-43 1 -82 6 -86 10 -12 13 27 100 65 141 52
58 120 87 203 87 66 0 69 -1 373 -152z"/>
<path d="M900 1265 l0 -165 130 0 130 0 0 35 0 35 -90 0 -90 0 0 30 0 30 75 0
75 0 0 35 0 35 -75 0 c-73 0 -75 1 -75 25 0 25 1 25 85 25 l85 0 0 40 0 40
-125 0 -125 0 0 -165z"/>
<path d="M1295 1416 c-37 -16 -82 -67 -91 -102 -11 -43 2 -120 25 -153 32 -45
76 -65 142 -65 40 1 67 7 93 23 41 26 45 40 16 66 -20 18 -22 18 -49 2 -45
-26 -88 -22 -122 12 -84 84 35 211 124 132 18 -15 20 -14 43 14 13 17 24 33
24 37 0 3 -19 16 -43 27 -49 24 -117 27 -162 7z"/>
<path d="M1635 1414 c-67 -34 -95 -79 -95 -149 0 -89 44 -143 132 -165 109
-28 218 54 218 163 0 55 -39 118 -89 144 -52 27 -122 30 -166 7z m142 -86 c33
-31 32 -100 -2 -133 -35 -36 -88 -34 -126 4 -86 86 39 212 128 129z"/>
</g>
</svg>
